<svg id="Layer_1" data-name="Layer 1" xmlns="http://www.w3.org/2000/svg" viewBox="0 0 147.63 76.69"><defs><style>.cls-1{fill:#f1f2f2;}</style></defs><title>Artboard 33</title><path class="cls-1" d="M22.69,16.38a22.69,22.69,0,1,0,22.7,22.69A22.69,22.69,0,0,0,22.69,16.38Zm10.92,18-12,11.31a2.34,2.34,0,0,1-1.62.65l-.23,0a2.35,2.35,0,0,1-1.69-1l-3.54-5a2.37,2.37,0,1,1,3.85-2.75l2,2.75L30.37,31a2.36,2.36,0,1,1,3.24,3.44Z"/><path class="cls-1" d="M143.68,53.08V30.36a4.67,4.67,0,0,0-.74-2.52l-11.63-18a4.66,4.66,0,0,0-3.92-2.13H119a1.83,1.83,0,0,0-1.82,1.82H113.5a1.82,1.82,0,0,0-1.82-1.82h-5.22a4.66,4.66,0,0,0-4.66,4.65v6.47H99.08a3,3,0,0,0-3,3v3.5l-3-4.41A46.75,46.75,0,0,0,60.71.44l-.21,0-1-.12-.31,0-1-.09-.39,0L56.89.07h-.2C55.9,0,55.1,0,54.31,0a49,49,0,0,0-15,2.36L30.24,5.27a7.79,7.79,0,0,0-4.9,5l-.11.32A28.65,28.65,0,0,1,45.67,56.19a6.78,6.78,0,1,1-7,6.77s0-.06,0-.09a28.39,28.39,0,0,1-6.57,3.27,13.73,13.73,0,0,0,27.05-2.3h49.81a13.72,13.72,0,0,0,27.39,0h6.53a4.78,4.78,0,0,0,4.77-4.77V57.78A4.78,4.78,0,0,0,143.68,53.08ZM96.1,53H85.64l5-1.62a7.8,7.8,0,0,0,4.91-5L96.1,45Zm26.54,16.74A6.79,6.79,0,1,1,129.42,63,6.79,6.79,0,0,1,122.64,69.75ZM134.77,34H110.71a2.39,2.39,0,0,1-2.38-2.39v-15a2.39,2.39,0,0,1,2.38-2.38h14.37a2.38,2.38,0,0,1,2,1.09l9.7,15.05a2.31,2.31,0,0,1,.38,1.27A2.39,2.39,0,0,1,134.77,34Z"/></svg>