<svg id="Layer_1" data-name="Layer 1" xmlns="http://www.w3.org/2000/svg" viewBox="0 0 78.77 111.66"><defs><style>.cls-1{fill:#f1f2f2;}</style></defs><title>Artboard 35</title><path class="cls-1" d="M0,75.19v29.7a6.78,6.78,0,0,0,6.77,6.77H60.08a2.38,2.38,0,0,0,1.68-.69L78.08,94.66A2.43,2.43,0,0,0,78.77,93V6.77A6.78,6.78,0,0,0,72,0H6.77A6.78,6.78,0,0,0,0,6.77V75.19ZM10.12,86.66a2.39,2.39,0,1,1,0-4.77H32.43a2.39,2.39,0,0,1,0,4.77ZM54.41,48.17h7.92a2.39,2.39,0,0,1,0,4.77H54.41a2.39,2.39,0,0,1,0-4.77ZM39.77,33.69a2.39,2.39,0,0,1,2.38-2.38H62.33a2.39,2.39,0,0,1,0,4.77H42.15A2.39,2.39,0,0,1,39.77,33.69Zm-33.1,0a2.39,2.39,0,0,1,2.39-2.38H29.23a2.39,2.39,0,1,1,0,4.77H9.06A2.39,2.39,0,0,1,6.67,33.69Zm0,16.86a2.39,2.39,0,0,1,2.39-2.38H44.48a2.39,2.39,0,1,1,0,4.77H9.06A2.39,2.39,0,0,1,6.67,50.55ZM9.62,65H62.33a2.39,2.39,0,0,1,0,4.77H9.62a2.39,2.39,0,0,1,0-4.77Zm52.84,38.49V97.35a2,2,0,0,1,2-2h6.17ZM74,14H4.77V6.77a2,2,0,0,1,2-2H72a2,2,0,0,1,2,2Z"/></svg>