<svg id="Layer_1" data-name="Layer 1" xmlns="http://www.w3.org/2000/svg" viewBox="0 0 94.59 111.66"><defs><style>.cls-1{fill:#f1f2f2;}</style></defs><title>Artboard 34</title><path class="cls-1" d="M21.56,29A21.56,21.56,0,1,0,43.12,50.55,21.55,21.55,0,0,0,21.56,29ZM31.93,46.13,20.51,56.88a2.27,2.27,0,0,1-1.54.61h-.22a2.27,2.27,0,0,1-1.6-.93l-3.36-4.7a2.25,2.25,0,1,1,3.65-2.62l1.87,2.61,9.54-9a2.25,2.25,0,1,1,3.08,3.27Z"/><path class="cls-1" d="M87.82,0H22.59a6.78,6.78,0,0,0-6.77,6.77V25.55H24a24.82,24.82,0,0,1,0,49.64H15.82v29.7a6.78,6.78,0,0,0,6.77,6.77H75.9a2.38,2.38,0,0,0,1.68-.69L93.89,94.66a2.39,2.39,0,0,0,.7-1.69V6.77A6.78,6.78,0,0,0,87.82,0ZM46.56,31.31h14.3a2.39,2.39,0,0,1,0,4.77h-11ZM63.24,50.55a2.38,2.38,0,0,1-2.38,2.39H53.43l0-4.77h7.4A2.38,2.38,0,0,1,63.24,50.55ZM49.65,65H60.86a2.39,2.39,0,1,1,0,4.77H46.25Zm6.19,21.63a2.39,2.39,0,0,1,0-4.77H78.15a2.39,2.39,0,0,1,0,4.77ZM70.23,48.17h7.92a2.39,2.39,0,0,1,0,4.77H70.23a2.39,2.39,0,1,1,0-4.77ZM67.84,33.69a2.39,2.39,0,0,1,2.39-2.38h7.92a2.39,2.39,0,0,1,0,4.77H70.23A2.39,2.39,0,0,1,67.84,33.69ZM70.23,65h7.92a2.39,2.39,0,0,1,0,4.77H70.23a2.39,2.39,0,1,1,0-4.77Zm8,38.49V97.35a2,2,0,0,1,2-2h6.17ZM89.82,14H20.59V6.77a2,2,0,0,1,2-2H87.82a2,2,0,0,1,2,2Z"/></svg>