<svg id="Layer_1" data-name="Layer 1" xmlns="http://www.w3.org/2000/svg" viewBox="0 0 39.24 46.32"><defs><style>.cls-1{fill:#fff;}</style></defs><title>Artboard 36</title><path class="cls-1" d="M8.94,12a8.95,8.95,0,1,0,9,8.94A8.94,8.94,0,0,0,8.94,12Zm4.31,7.11L8.51,23.6a.93.93,0,0,1-.64.25H7.78a.91.91,0,0,1-.67-.38L5.72,21.51a.94.94,0,0,1,1.52-1.09L8,21.51l4-3.73a.93.93,0,0,1,1.28,1.36Z"/><path class="cls-1" d="M36.43,0H9.37A2.81,2.81,0,0,0,6.56,2.81V10.6H9.94a10.3,10.3,0,0,1,0,20.59H6.56V43.52a2.81,2.81,0,0,0,2.81,2.8H31.49a1,1,0,0,0,.7-.29L39,39.27a1,1,0,0,0,.29-.7V2.81A2.81,2.81,0,0,0,36.43,0ZM19.31,13h5.94a1,1,0,0,1,0,2H20.68Zm6.93,8a1,1,0,0,1-1,1H22.16l0-2h3.07A1,1,0,0,1,26.24,21ZM20.6,27h4.65a1,1,0,0,1,0,2H19.19Zm2.57,9a1,1,0,1,1,0-2h9.25a1,1,0,1,1,0,2Zm6-16h3.29a1,1,0,0,1,0,2H29.13a1,1,0,0,1,0-2Zm-1-6a1,1,0,0,1,1-1h3.29a1,1,0,1,1,0,2H29.13A1,1,0,0,1,28.15,14Zm1,13h3.29a1,1,0,0,1,0,2H29.13a1,1,0,0,1,0-2Zm3.35,16V40.39a.83.83,0,0,1,.83-.83h2.55ZM37.26,5.79H8.54v-3A.83.83,0,0,1,9.37,2H36.43a.83.83,0,0,1,.83.83Z"/></svg>