<svg id="Layer_1" data-name="Layer 1" xmlns="http://www.w3.org/2000/svg" viewBox="0 0 32.68 46.32"><defs><style>.cls-1{fill:#fff;}</style></defs><title>Artboard 37</title><path class="cls-1" d="M0,31.19V43.52a2.81,2.81,0,0,0,2.81,2.8H24.92a1,1,0,0,0,.7-.29l6.77-6.76a1,1,0,0,0,.29-.7V2.81A2.81,2.81,0,0,0,29.87,0H2.81A2.81,2.81,0,0,0,0,2.81V31.19ZM4.2,36a1,1,0,1,1,0-2h9.25a1,1,0,1,1,0,2ZM22.57,20h3.29a1,1,0,1,1,0,2H22.57a1,1,0,1,1,0-2ZM16.5,14a1,1,0,0,1,1-1h8.37a1,1,0,1,1,0,2H17.49A1,1,0,0,1,16.5,14ZM2.77,14a1,1,0,0,1,1-1h8.37a1,1,0,0,1,0,2H3.76A1,1,0,0,1,2.77,14Zm0,7a1,1,0,0,1,1-1H18.45a1,1,0,1,1,0,2H3.76A1,1,0,0,1,2.77,21ZM4,27H25.86a1,1,0,1,1,0,2H4a1,1,0,1,1,0-2ZM25.91,43V40.39a.83.83,0,0,1,.83-.83H29.3ZM30.7,5.79H2v-3A.83.83,0,0,1,2.81,2H29.87a.83.83,0,0,1,.83.83Z"/></svg>