<svg id="Layer_1" data-name="Layer 1" xmlns="http://www.w3.org/2000/svg" viewBox="0 0 32.41 46.32"><defs><style>.cls-1{fill:#fff;}</style></defs><title>Artboard 40</title><path class="cls-1" d="M29.55,0H9.42A2.86,2.86,0,0,0,6.56,2.86V10.6h3A10.53,10.53,0,0,1,20.19,20,10.3,10.3,0,0,1,9.94,31.19H6.56V43.46a2.86,2.86,0,0,0,2.86,2.86H29.36a3,3,0,0,0,3-3V2.86A2.86,2.86,0,0,0,29.55,0ZM19.49,44.32a2.08,2.08,0,1,1,2.08-2.08A2.08,2.08,0,0,1,19.49,44.32Zm10.32-7.55a2,2,0,0,1-2,2H11.17a2,2,0,0,1-2-2V33.16c.42,0,.84.06,1.27.06a12.25,12.25,0,1,0,0-24.5c-.43,0-.85,0-1.27.07V4.6a2,2,0,0,1,2-2H27.81a2,2,0,0,1,2,2Z"/><path class="cls-1" d="M8.94,12a8.95,8.95,0,1,0,9,8.94A8.94,8.94,0,0,0,8.94,12Zm4.25,11.55a1,1,0,0,1-.71,1.71,1,1,0,0,1-.7-.3l-2.61-2.6L6.56,25a1,1,0,0,1-.7.3,1,1,0,0,1-.71-1.71L7.76,21l-2.61-2.6a1,1,0,0,1,0-1.42,1,1,0,0,1,1.41,0l2.61,2.61L11.78,17a1,1,0,0,1,1.41,0,1,1,0,0,1,0,1.42L10.58,21Z"/></svg>